<svg width="22" height="22" viewBox="0 0 22 22" fill="none" xmlns="http://www.w3.org/2000/svg">
<path d="M9.3636 2.05499C7.90721 2.05499 6.48354 2.47887 5.2726 3.27302C4.06167 4.06717 3.11786 5.19592 2.56052 6.51655C2.00319 7.83717 1.85737 9.29035 2.14149 10.6923C2.42562 12.0943 3.12693 13.3821 4.15675 14.3928C5.18657 15.4036 6.49863 16.0919 7.92703 16.3708C9.35543 16.6497 10.836 16.5065 12.1815 15.9595C13.527 15.4125 14.6771 14.4862 15.4862 13.2976C16.2953 12.1091 16.7272 10.7118 16.7272 9.28233C16.7271 7.36556 15.9512 5.52733 14.5703 4.17197C13.1894 2.8166 11.3165 2.05511 9.3636 2.05499Z" stroke="black" stroke-opacity="0.24" stroke-width="3" stroke-miterlimit="10"/>
<path d="M14.8574 14.6744L20.0001 19.7219" stroke="black" stroke-opacity="0.24" stroke-width="3" stroke-miterlimit="10" stroke-linecap="round"/>
</svg>
